<?xml version="1.0" encoding="utf-8"?>
<!-- Generator: Adobe Illustrator 22.1.0, SVG Export Plug-In . SVG Version: 6.00 Build 0)  -->
<svg version="1.1" id="Layer_2" xmlns="http://www.w3.org/2000/svg" xmlns:xlink="http://www.w3.org/1999/xlink" x="0px" y="0px"
	 viewBox="0 0 280 280" style="enable-background:new 0 0 280 280;" xml:space="preserve">
<style type="text/css">
	.st0{fill:#3582EB;}
	.st1{fill:#E86F2D;}
	.st2{fill:#5BA1F4;}
	.st3{fill:#194168;}
</style>
<path class="st0" d="M267,1.2L99.5,97.8c-6.5,3.8-5.7,12.9,0.8,15.6l38.4,16.1L242.5,38c2-1.8-83.9,109.1-83.9,109.1v29.1
	c0,8.5,10.3,11.9,15.4,5.7l22.9-27.9l45,18.9c5.1,2.2,11-1,11.9-6.6l26-156.1C281.1,2.8,273.3-2.4,267,1.2z"/>
<path class="st1" d="M242.8,37.7l-84.2,108.4v26.6c-0.5,8,1.6,10.9,5.6,12.3c5.3,1.9,7.5-0.5,9.8-3.2c23.2-27.5,22.9-27.9,22.9-27.9
	L242.8,37.7z"/>
<path class="st2" d="M242.5,38.1L267.3,1l0,0c-0.1,0.1,0.1-0.1,0,0L99.1,98.1c-6.5,3.8-5.6,13,0.9,15.8l38.4,16.1l103.6-91.3
	L242.5,38.1z"/>
<path class="st3" d="M63.2,269.3L63.2,269.3c0.1-1.5-1-2.8-2.5-3.1c-2.9-0.5-5.8-1.4-8.6-2.6c-1.2-0.5-2.6-0.1-3.5,0.9l0,0
	c-1.2,1.6-0.6,3.8,1.2,4.6c3.2,1.3,6.5,2.3,9.9,2.9C61.5,272.3,63.1,271.1,63.2,269.3z"/>
<path class="st3" d="M68.6,210.1L68.6,210.1c-1.8,0.8-2.5,3-1.4,4.7c1.7,2.5,3.7,4.9,5.9,7.1c1.3,1.3,3.4,1.1,4.4-0.4h0
	c0.8-1.1,0.8-2.6-0.1-3.7c-1.8-2.1-3.8-4.8-5.2-6.7C71.4,210,69.9,209.6,68.6,210.1z"/>
<path class="st3" d="M150.3,196.7c1.5,1.5,3.9,1.1,4.8-0.8c1.2-2.4,2.2-4.9,3.1-7.5c1.2-3.7-4.6-5.2-5.8-1.6
	c-0.8,2.3-1.7,4.5-2.7,6.6C149.2,194.4,149.4,195.8,150.3,196.7L150.3,196.7z"/>
<path class="st3" d="M65.1,186.2L65.1,186.2c-1.7-1.1-4-0.3-4.6,1.7c-0.6,2-0.9,4.1-0.9,6.2c0,2.2,2.2,3.6,4.2,2.8l0.1,0
	c1.1-0.5,1.9-1.6,1.9-2.8c0-1.6,0.1-3.1,0.5-4.6C66.7,188.2,66.2,186.9,65.1,186.2z"/>
<path class="st3" d="M138.6,209.2c-1.7,1.8-3.6,3.6-5.5,5.3c-1.1,1-1.3,2.6-0.5,3.8v0c1,1.6,3.1,1.9,4.5,0.7c2-1.8,4-3.7,5.9-5.6
	c1.1-1.2,1.1-3,0-4.2l0,0C141.8,208,139.8,208,138.6,209.2z"/>
<path class="st3" d="M16.9,231.8c-1.3-2.3-2.5-4.6-3.5-7c-0.6-1.4-2.2-2.1-3.6-1.6h0c-1.7,0.5-2.6,2.5-1.9,4.1
	c1.1,2.6,2.4,5.1,3.8,7.5c0.8,1.4,2.6,2,4.1,1.2l0,0C17.2,235.1,17.7,233.3,16.9,231.8z"/>
<path class="st3" d="M3.6,183.2c1.5,0,2.8-1.1,3-2.7c0.3-3.1,0.7-6.1,1.4-9.1c0.8-3.8-5-5.4-5.8-1.6c-0.7,3.3-1.2,6.7-1.5,10.1
	C0.5,181.7,1.8,183.2,3.6,183.2L3.6,183.2z"/>
<path class="st3" d="M36.1,257.8L36.1,257.8c1-1.3,0.8-3.2-0.5-4.2c-0.5-0.4-1-0.8-1.5-1.2c-1.9-1.6-3.8-3.3-5.5-5
	c-0.9-0.9-2.4-1.1-3.5-0.5l0,0c-1.7,0.9-2.1,3.3-0.7,4.7c1.6,1.6,3.2,3.1,4.9,4.6c0.9,0.7,1.8,1.5,2.7,2.2
	C33.2,259.3,35.1,259.1,36.1,257.8z"/>
<path class="st3" d="M101.3,182.7c0,0.8,0.3,1.5,0.8,2.1c0.8,0.9,1.5,1.9,2.1,3c0.4,0.7,0.8,1.4,1.1,2.1c0.5,1,1.5,1.7,2.7,1.7h0.1
	c2.1,0,3.6-2.2,2.7-4.2c-0.1-0.2-0.2-0.4-0.3-0.6c-1.1-2.2-2.4-4.2-4-6c-1.7-2-5-0.8-5.1,1.8L101.3,182.7z"/>
<path class="st3" d="M86.4,257.9c-2.3,2-5.7,4.3-7.6,5.4c-0.8,0.5-1.3,1.4-1.4,2.4c0,0,0,0.1,0,0.1c-0.1,2.3,2.3,4,4.4,2.8
	c3.2-1.7,6-3.8,8.7-6.4c1.6-1.5,0.9-4.3-1.2-4.9l-0.1,0C88.2,257,87.2,257.3,86.4,257.9z"/>
<path class="st3" d="M5.6,209.8L5.6,209.8c1.5-0.4,2.3-1.9,2.1-3.4c-0.4-2.2-0.7-4.4-1-6.6c-0.2-1.5-1.4-2.6-2.9-2.6h0
	c-1.8,0-3.2,1.5-3,3.3c0.3,2.3,0.6,4.6,1,6.9C2.1,209.2,3.9,210.3,5.6,209.8z"/>
<path class="st3" d="M79.4,177.7c1.7-0.5,3.5-0.7,5.3-0.7c1.6,0,2.9-1.3,3-2.9l0,0c0.1-1.8-1.4-3.2-3.1-3.2c-2,0.1-4.4,0.3-6.6,0.7
	c-2.7,0.5-3.4,4-1.1,5.5l0.2,0.1C77.8,177.7,78.6,177.9,79.4,177.7z"/>
<path class="st3" d="M124.1,226.6c-0.9-1.1-2.5-1.3-3.8-0.7c-1,0.5-2.6,1.1-3.8,1.6c-1,0.4-1.7,1.2-1.9,2.2v0
	c-0.6,2.5,2,4.6,4.4,3.5c1.5-0.7,3-1.4,4.2-2.2C124.7,230.1,125.2,228.1,124.1,226.6z"/>
<path class="st3" d="M95.7,226.2c-1.3-0.3-2.8-0.6-3.8-1c-1.3-0.4-2.7,0-3.5,1.1c-1.1,1.6-0.4,3.9,1.5,4.5c1.4,0.4,2.9,0.9,4.5,1.2
	c1.5,0.3,3-0.5,3.4-2c0,0,0-0.1,0-0.1C98.4,228.3,97.4,226.6,95.7,226.2z"/>
<g>
	<path class="st3" d="M111.5,222.6c1.2-4.5,2.1-9.1,2.5-13.7c0.1-1.6-1-3.2-2.7-3.4c-1.7-0.2-3.1,1.1-3.3,2.7
		c-0.5,5.2-1.1,8.6-2.3,12.7c-0.5,1.7,0.6,3.4,2.3,3.7l0.1,0C109.6,225,111.1,224.1,111.5,222.6z"/>
	<path class="st3" d="M104.1,234.1c-1.4-0.4-2.9,0.3-3.4,1.7l0,0c-0.8,2-1.7,4-2.7,5.9c-0.7,1.5-0.3,3.3,1.2,4.1
		c1.5,0.8,3.3,0.2,4.1-1.3c1.1-2.2,2.1-4.4,3-6.6c0.6-1.5-0.2-3.2-1.8-3.7L104.1,234.1z"/>
</g>
</svg>
