<?xml version="1.0" encoding="utf-8"?>
<!-- Generator: Adobe Illustrator 22.1.0, SVG Export Plug-In . SVG Version: 6.00 Build 0)  -->
<svg version="1.1" id="Layer_3" xmlns="http://www.w3.org/2000/svg" xmlns:xlink="http://www.w3.org/1999/xlink" x="0px" y="0px"
	 viewBox="0 0 280 280" style="enable-background:new 0 0 280 280;" xml:space="preserve">
<style type="text/css">
	.st0{fill:#5BA1F4;}
	.st1{fill:#3582EB;}
	.st2{fill:#E86F2D;}
</style>
<path class="st0" d="M140,0C62.7,0,0,62.7,0,140s62.7,140,140,140s140-62.7,140-140S217.3,0,140,0z M140,220c-44.2,0-80-35.8-80-80
	s35.8-80,80-80s80,35.8,80,80S184.2,220,140,220z"/>
<path class="st1" d="M140,0C62.7,0,0,62.7,0,140s62.7,140,140,140s140-62.7,140-140S217.3,0,140,0z M140,250
	c-60.8,0-110-49.2-110-110S79.2,30,140,30s110,49.2,110,110S200.8,250,140,250z"/>
<g>
	<path class="st2" d="M151.6,161.8H124v-2.8c0-4.7,0.5-8.5,1.6-11.4c1.1-2.9,2.6-5.6,4.7-8c2.1-2.4,6.8-6.7,14.2-12.8
		c3.9-3.2,5.9-6.1,5.9-8.8c0-2.7-0.8-4.7-2.4-6.2c-1.6-1.5-4-2.2-7.1-2.2c-3.4,0-6.3,1.1-8.5,3.4c-2.2,2.3-3.7,6.2-4.3,11.9
		l-28.1-3.5c1-10.3,4.7-18.7,11.3-25c6.5-6.3,16.6-9.5,30.1-9.5c10.5,0,19,2.2,25.5,6.6c8.8,5.9,13.2,13.9,13.2,23.8
		c0,4.1-1.1,8.1-3.4,11.9c-2.3,3.8-6.9,8.5-13.9,14c-4.9,3.9-8,7-9.2,9.3C152.2,155,151.6,158.1,151.6,161.8z"/>
</g>
<circle class="st2" cx="138.4" cy="183" r="15"/>
</svg>
