<?xml version="1.0" encoding="utf-8"?>
<!-- Generator: Adobe Illustrator 22.1.0, SVG Export Plug-In . SVG Version: 6.00 Build 0)  -->
<svg version="1.1" id="Layer_2" xmlns="http://www.w3.org/2000/svg" xmlns:xlink="http://www.w3.org/1999/xlink" x="0px" y="0px"
	 viewBox="0 0 280 280" style="enable-background:new 0 0 280 280;" xml:space="preserve">
<style type="text/css">
	.st0{fill:#3F8E68;}
	.st1{fill:#3582EB;}
	.st2{fill:#E86F2D;}
</style>
<path class="st0" d="M153.4,89c0,0-29.4-0.5-29.4,3.3s-4.6,10.7-13.7,15.5c-12.4,6.5-27.5-2.5-50.9,15.5
	c-12,9.2-15.1,24.5-15.7,34.7c-14.1,5.5-24.2,19.3-24.2,35.3c0,20.9,17,37.9,37.9,37.9s37.9-17,37.9-37.9c0-15.3-9.1-28.5-22.2-34.5
	l0,0c0.8-9.2,7.2-17,16.2-19.4c3.9-1,8.7-2,14.6-2.9c27.1-4.1,33.6-11.3,38.3-18.1C153.9,100.9,153.4,89,153.4,89z M57.3,209.6
	c-9,0-16.3-7.3-16.3-16.3c0-9,7.3-16.3,16.3-16.3s16.3,7.3,16.3,16.3C73.6,202.3,66.3,209.6,57.3,209.6z"/>
<path class="st1" d="M153.4,206.6v-86L124,92.2l-0.1,115.6c-12.8,6.1-21.7,19.2-21.7,34.3c0,20.9,17,37.9,37.9,37.9
	s37.9-17,37.9-37.9C178,225.9,167.8,212,153.4,206.6z M140.1,258.3c-9,0-16.3-7.3-16.3-16.3c0-9,7.3-16.3,16.3-16.3
	c9,0,16.3,7.3,16.3,16.3C156.3,251,149,258.3,140.1,258.3z"/>
<path class="st2" d="M233.9,157.8c-0.7-4.8-3.1-14-11.1-25.7c-4.7-6.9-11.2-14-38.3-18.1c-5.9-0.9-10.7-1.9-14.6-2.9
	c-9-2.4-15.4-10.2-16.2-19.4l-1.6-18.6c13.9-5.7,23.6-19.3,23.6-35.1C175.9,17,158.9,0,138,0S100,17,100,37.9
	c0,15.4,9.2,28.6,22.4,34.6c0,7.9,0.8,41.6,17.7,54.6c23.5,18.1,38.5,9,50.9,15.5c9.2,4.8,13.7,11.7,13.7,15.5
	c0,0.2,0.1,0.4,0.3,0.6c-13.1,6-22.3,19.2-22.3,34.5c0,20.9,17,37.9,37.9,37.9s37.9-17,37.9-37.9C258.6,177,248.3,163.1,233.9,157.8
	z M138,21.7c9,0,16.3,7.3,16.3,16.3s-7.3,16.3-16.3,16.3c-9,0-16.3-7.3-16.3-16.3S129,21.7,138,21.7z M220.7,209.6
	c-9,0-16.3-7.3-16.3-16.3c0-9,7.3-16.3,16.3-16.3c9,0,16.3,7.3,16.3,16.3C236.9,202.3,229.6,209.6,220.7,209.6z"/>
</svg>
