<?xml version="1.0" encoding="utf-8"?>
<!-- Generator: Adobe Illustrator 22.1.0, SVG Export Plug-In . SVG Version: 6.00 Build 0)  -->
<svg version="1.1" xmlns="http://www.w3.org/2000/svg" xmlns:xlink="http://www.w3.org/1999/xlink" x="0px" y="0px"
	 viewBox="0 0 280 280" style="enable-background:new 0 0 280 280;" xml:space="preserve">
<style type="text/css">
	.st0{fill:#F78A52;}
	.st1{fill:#E86F2D;}
	.st2{fill:#F6C3B4;}
	.st3{fill:#F19D9B;}
	.st4{fill:#041844;}
	.st5{fill:#5BA1F4;}
	.st6{fill:#3582EB;}
	.st7{display:none;}
	.st8{display:inline;fill:#5BA1F4;}
	.st9{display:inline;fill:#3582EB;}
	.st10{display:inline;}
	.st11{display:inline;fill:#E86F2D;}
</style>
<g id="Layer_4">
	<path class="st0" d="M250.4,158.3c-1.5,12.7-15.8,17.6-34.2,17.6c-18.3,0-33.9-4.8-35.5-17.5c-8,3.6-14.8,8.7-19.6,15.1
		c26.1,6.9,48.3,19.8,63.7,36.4c31.8,0.4,53.1,3.3,54.7-10.2C281.7,181,269.1,166.3,250.4,158.3z"/>
	<path class="st1" d="M247.7,181.6c11.2,0,21.6,12.2,31.2,6.5c-3-13.2-13.9-23.5-28.5-29.8c-1.5,12.7-15.8,17.6-34.2,17.6
		c-18.3,0-33.9-4.8-35.5-17.5c-8,3.6-14.8,8.7-19.6,15.1c15.6,4.1,29.8,10.4,42,18.3c1.8,1.2,4.1,1.2,5.9,0.1
		C219.9,185.5,233.3,181.6,247.7,181.6z"/>
	<path class="st2" d="M185.1,161.1c-2-6.1,13.8-11.5,17.2-23.8l25.6-0.8c5.5,17.3,19.9,18.5,17.7,24.8
		C240.8,174.7,189.4,174.2,185.1,161.1z"/>
	<path class="st3" d="M187.6,161.1c-8.3-3.9,7-6.9,14.7-23.8l25.6-0.8c6.8,16.5-3.3,24.2-16,20.6C200,153.8,195.9,165,187.6,161.1z"
		/>
	<path class="st4" d="M247,86.3c2.3,9.5-1.5,15.2-7.6,15.2c-6.1,0-11-6.9-11-15.5s9.2-18.5,15.3-18.5S240.7,60.6,247,86.3z"/>
	<path class="st4" d="M198.9,151.1c3.2-4.1,5.3-11.1,5.3-19.2c0-12.6-13.2-28-19.6-28c-0.8,0-1.4,0.2-1.9,0.7
		c0.1-3.8,0.1-8.5-0.1-14.1c-0.8-17.4-3.3-30.6-7.1-31.6c-4.4-1.1-6.7,18.5-1.8,36.8c2,7.6,1.8,13.7,1.3,18.2
		c-0.7,3.2-2.2,6.3-4.8,10.4c-4.4,5.7-9.4,6.2-9.4,13c0,3.7,1.5,6.9,3.6,9c-0.7,1.1-1.5,2-2.5,2.6c-6.7,3.9,0.2,12.6,6,12.6
		c1.5,0,3.3-0.5,5-1.4c2.8,2.1,7.4,3.4,12.6,3.4c8.6,0,15.5-3.7,15.5-8.2C200.9,153.7,200.2,152.3,198.9,151.1z"/>
	<path class="st2" d="M239.8,82.1c4.2,23.2-7.2,60.4-21.6,62.9c-14.4,2.6-35.2-23.5-39.4-46.6c-4.2-23.2,10-34.7,24.4-37.3
		C217.6,58.5,235.7,58.9,239.8,82.1z"/>
	<path class="st4" d="M174.1,92c4,11.4,4.7,1,22-8.1c9.1-4.7,3.1-14.2,18.5-25.4c7.3-5.4-12.2-11.4-22.4-11.4
		C181.9,47.1,171.1,83.4,174.1,92z"/>
	<path class="st4" d="M246.1,64c0-7.4-8-14.5-16.3-18c-0.6-0.3-1.2-0.6-1.8-0.7c-2.4-0.9-4.8-1.4-7-1.6c-7.7-0.5-11.5,0.5-13.1,2.5
		c-2.2-0.9-5.6-1.3-10.9-0.9c-10.1,0.7-25.1,10.2-25.1,20.3s-1.6,27.8,8.6,27.8c9.2,0,24.9-14.6,27.7-24.8c3.6,3.1,9,3.1,13.6,7.2
		c10,9.1,23.9,16.3,23.9,7.2c0-2.2-0.5-5.6-1.4-9.4C245.3,70.4,246.1,67,246.1,64z"/>
</g>
<g id="Layer_2">
	<path class="st2" d="M58.9,195.5c-3.7-11.1,25-20.9,31.2-43.2l46.4-1.4c10.1,31.4,36.1,33.6,32.1,45
		C160.1,220.1,66.7,219.3,58.9,195.5z"/>
	<path class="st3" d="M63.5,195.4c-15-7.1,12.7-12.5,26.7-43.1l46.4-1.4c12.3,29.9-6.1,43.9-29,37.5
		C85.9,182.3,78.6,202.5,63.5,195.4z"/>
	<path class="st2" d="M157.5,56.6c7.3,40.5-12.6,105.5-37.7,110c-25.1,4.5-61.6-41-68.9-81.5C43.7,44.6,68.4,24.5,93.5,20
		S150.3,16.1,157.5,56.6z"/>
	<path class="st1" d="M180.4,21.7c-2.8-24.5-36.1-26.5-54.4-11.9c-7.7-2.7-16-4.2-24.2-4.2c-29.6,0-55.9,21.1-53.6,47
		c3.6,41.3,2.1-29.4,47.4-3.3c21.8,12.5,50.9,22.7,62.5,14C170.5,56.5,181.4,30.9,180.4,21.7z"/>
	<path class="st5" d="M177.6,192.2c-2.7,21.6-28.7,29.8-62,29.8c-33.1,0-61.6-8.1-64.5-29.6c-30.6,12.9-50.8,36.4-50.8,70.1
		c0,22.1,56.8,17.1,120.3,17.1s106.6,7,109.7-17.1C234.4,230.7,211.5,205.8,177.6,192.2z"/>
	<path class="st6" d="M3.9,270.6c58.4-26.8,126.4-46.8,199.9-26.4c12.5,3.5,24.2-5.9,17.6-19.2c-9.3-14-24.8-25.1-43.8-32.7
		c-2.7,21.6-28.7,29.8-62,29.8c-33.1,0-61.6-8.1-64.5-29.6c-30.6,12.9-50.8,36.4-50.8,70.1C0.4,265.8,1.6,268.4,3.9,270.6z"/>
</g>
<g id="Layer_3" class="st7">
	<path class="st8" d="M140,0C62.7,0,0,62.7,0,140s62.7,140,140,140s140-62.7,140-140S217.3,0,140,0z M140,220c-44.2,0-80-35.8-80-80
		s35.8-80,80-80s80,35.8,80,80S184.2,220,140,220z"/>
	<path class="st9" d="M140,0C62.7,0,0,62.7,0,140s62.7,140,140,140s140-62.7,140-140S217.3,0,140,0z M140,250
		c-60.8,0-110-49.2-110-110S79.2,30,140,30s110,49.2,110,110S200.8,250,140,250z"/>
	<g class="st10">
		<path class="st1" d="M155.3,164.2h-33.4v-3.3c0-5.7,0.6-10.3,1.9-13.8c1.3-3.5,3.2-6.8,5.8-9.7c2.5-2.9,8.3-8.1,17.2-15.5
			c4.7-3.9,7.1-7.4,7.1-10.6c0-3.2-1-5.7-2.9-7.5c-1.9-1.8-4.8-2.7-8.7-2.7c-4.2,0-7.6,1.4-10.3,4.1c-2.7,2.8-4.5,7.6-5.2,14.4
			l-34.1-4.2c1.2-12.5,5.7-22.6,13.7-30.3c7.9-7.6,20.1-11.5,36.5-11.5c12.8,0,23.1,2.7,30.9,8c10.7,7.2,16,16.8,16,28.8
			c0,5-1.4,9.8-4.1,14.4c-2.8,4.6-8.4,10.3-16.9,17c-5.9,4.7-9.7,8.5-11.2,11.3C156.1,156,155.3,159.7,155.3,164.2z"/>
	</g>
	<circle class="st11" cx="139.4" cy="189.9" r="18.1"/>
</g>
</svg>
