<?xml version="1.0" encoding="utf-8"?>
<!-- Generator: Adobe Illustrator 22.1.0, SVG Export Plug-In . SVG Version: 6.00 Build 0)  -->
<svg version="1.1" id="Layer_1" xmlns="http://www.w3.org/2000/svg" xmlns:xlink="http://www.w3.org/1999/xlink" x="0px" y="0px"
	 viewBox="0 0 1219 519" style="enable-background:new 0 0 1219 519;" xml:space="preserve">
<style type="text/css">
	.st0{fill:#D37A18;}
	.st1{fill:url(#SVGID_1_);}
	.st2{fill:#EFAA9A;}
	.st3{fill:#0A1119;}
	.st4{fill:#3A1F0D;}
	.st5{fill:#562F14;}
	.st6{fill:#041844;}
	.st7{fill:#CE7115;}
	.st8{fill:#4376C9;}
	.st9{fill:#F7D33E;}
	.st10{fill:#040E21;}
	.st11{fill:#160D06;}
	.st12{fill:#2D1B0E;}
	.st13{fill:#563418;}
	.st14{fill:#351F0F;}
	.st15{fill:#D0DAEA;}
	.st16{fill:#F78A52;}
	.st17{fill:#3582EB;}
	.st18{fill:url(#SVGID_2_);}
	.st19{fill:url(#SVGID_3_);}
	.st20{fill:#FFFFFF;}
	.st21{fill:#F9D750;}
</style>
<path class="st0" d="M574.7,309.8"/>
<linearGradient id="SVGID_1_" gradientUnits="userSpaceOnUse" x1="922.5461" y1="688.8761" x2="626.1205" y2="175.452">
	<stop  offset="0" style="stop-color:#FFFFFF"/>
	<stop  offset="1" style="stop-color:#B5E5FF"/>
</linearGradient>
<path class="st1" d="M1218.6,518c-0.4-34.1-9.5-77-29.8-130.8c-79.3-210.2-402.1-425.9-403.5-268.5
	c-2.7,293.5-408.8,253.5-408.8,380.5c0,6.5,0.4,12.8,1.1,18.8H1218.6z"/>
<path class="st2" d="M429.8,145.8l-4.9-12.7l-3.5-10.4l1.4-13l-19.2-8.1l-12.2,2.7c-1.9,0.4-3.5,1.7-4.3,3.4l-0.3,0.7
	c-0.5,1.1-0.7,2.2-0.6,3.4l0.6,7.7l-4.6,5.7l5.9,0.4l2.3,11.4c0,0.6,0,0,0,0.6l0-0.6l0,0c0.8,6.8,2.1,12.9,6.9,11.8
	c5.6-1.3,5.4-0.1,11.2-9.3c0.4,0.1,1,0.3,1.6,0.7c3.6,1.9,0.2,14.3,0.2,14.3L429.8,145.8z"/>
<path class="st3" d="M410.3,116.1l-24.1-2.5c-0.2,0-0.3-0.2-0.3-0.3l0.1-0.8c0-0.2,0.2-0.3,0.3-0.3l24.1,2.5c0.2,0,0.3,0.2,0.3,0.3
	l-0.1,0.8C410.7,116,410.5,116.1,410.3,116.1z"/>
<polygon class="st4" points="461,239.2 450.9,384.9 437.5,385.4 422.7,242.8 "/>
<polygon class="st5" points="407.9,241.3 411.8,385.4 426.1,385.4 441.8,246.4 "/>
<path class="st3" d="M387.1,119.7l-0.7,0c-0.1,0-0.3-0.1-0.3-0.3l-0.2-9.9c0-0.1,0.1-0.3,0.3-0.3l0.7,0c0.1,0,0.3,0.1,0.3,0.3
	l0.2,9.9C387.3,119.5,387.2,119.7,387.1,119.7z"/>
<path class="st6" d="M386.2,130.6"/>
<path class="st7" d="M410.4,132.6c-0.6-6.1,0.9-13.5,3.9-14.4c1.1-0.3,2.2,0.3,2.9,0.7c2.1,1.2,3.4,3.7,3.5,5.9c0.1,2.2-1,3-0.4,5
	c0.1,0.4,0.5,1.6,1.6,2.3c1.6,1.1,3.3,1.1,4.9,0.6c0.8-0.2,2.3-0.8,2.9-1.4c1.6-1.6,2.7-3.1,4.2-7.1c2.1-5.8,1.7-4.8,2.5-8
	c0.1-0.5,0.5-2.1,0.6-5.8c0,0,0-0.1,0-0.1c0.1-0.4,0.2-0.9,0.2-1.4c1-10.1-8.1-23.1-19.9-20.5c-22.2,4.9-38.7-18.3-32.6,11.3
	c1.8,8.7,14.2,13.4,25.4,15.3c-0.4,1.4-1,3.3-2.2,6.3c-2.2,5.4-3.4,6.2-5,7.4"/>
<path class="st6" d="M387.5,153.8"/>
<path class="st6" d="M384,129.1"/>
<path class="st8" d="M459,223.6c-9.1-38.1-8.9-72.3-25.9-78l-4.1-7.9l-17.6,10.1l-1.8,12.5l-31.1,7.1c-7.3,1.1-10.3,1.6-10.5-3.8
	l-0.8-30.6l-10.4-0.5c0,0-1.6,41,3.8,46.7c7.2,7.5,19.4,8.4,46,0c10.5,11.8,1.3,54.5-8.3,58c-16.4,5.9,10.4,5.1,29.6,10.5
	C447.7,253.2,467.7,260,459,223.6z"/>
<polygon class="st6" points="433.1,145.3 410,156.9 409.6,160.2 "/>
<path class="st6" d="M406.6,179.2c0,0-4.1,9.4-5.8,14.9c-1.7,5.5-0.9,11.3-0.1,13.7c1.1,3.3,7,10.4,10,13.7c2.9,3.3,9.9,7.1,9.9,7.1
	l7.5-2.6l-3-9.5c0,0,0.5,0.2,0,0c-5.5-1.8-7.4-5-10.3-8.6c-4.9-6.1-4.8-8.9-4.7-11.8c0.1-4.2,0.1-9.8,0.1-9.8L409,183l-0.8-1.5
	l-0.5-0.9c0,0-0.6-0.8-0.6-0.8L406.6,179.2z"/>
<path class="st9" d="M343.2,116.4c0,3.5-1.4,6.6-3.7,6.6s-4.7-3.7-4.7-7.2s2.4-7.2,4.7-7.2S343.2,113,343.2,116.4z"/>
<path class="st10" d="M434.4,391.9h16.1v11.2c0,0.8-0.6,1.4-1.4,1.4h-9.5c-0.1,0-0.2,0-0.3,0l-5-1.1l-14.9,0c0,0-12.2-0.3-10.6-6.1
	c2.5-8.6,5.1-13.7,12.3-10.5C430.4,390.8,434.4,391.9,434.4,391.9z"/>
<polygon class="st2" points="450.9,384.9 450.5,391.9 437.9,391.9 437.9,385.4 "/>
<polygon class="st11" points="341.2,109.2 385.7,111 385.7,119.2 341.2,122.6 "/>
<path class="st12" d="M361.9,121.7h-0.1c-0.3,0-0.6-0.3-0.6-0.6v-11c0-0.3,0.3-0.6,0.6-0.6h0.1c0.3,0,0.6,0.3,0.6,0.6v11
	C362.5,121.4,362.2,121.7,361.9,121.7z"/>
<polygon class="st12" points="362.5,110.2 385.7,111 385.7,119.2 362.5,121 "/>
<polygon class="st13" points="343,122.6 339.5,123 339.5,108.6 343,109.4 "/>
<path class="st14" d="M342.2,123.4H342c-0.4,0-0.8-0.4-0.8-0.8v-13.6c0-0.4,0.4-0.8,0.8-0.8h0.2c0.4,0,0.8,0.4,0.8,0.8v13.6
	C343,123.1,342.6,123.4,342.2,123.4z"/>
<path class="st2" d="M367.8,125.5l0.1-4.9c0,0-1,0.1-3.5,0.3c-2.3,0.2-1.5-2.9-1.5-4.3c0-0.1-0.1-1-0.1-1l-0.7-7.2
	c0,0-0.1-0.7-1-0.7c-0.6,0-1.1,1.6-1.1,1.6s-0.2,0.7-1.3,3.6c-1.7,4.7-2.7,4.6-2.4,8.3s1.8,8,1.8,9.1s-0.8,2.4-0.8,2.4l8.7,0.5
	c0,0-0.8-3.6-0.3-4.9c0.4-0.9,1.1-1.6,1.5-1.9C367.7,126,367.8,125.7,367.8,125.5z"/>
<path class="st6" d="M409.7,392.5h16.1v11.2c0,0.8-0.6,1.4-1.4,1.4H415c-0.1,0-0.2,0-0.3,0l-5-1.1l-14.9,0c0,0-12.2-0.3-10.6-6.1
	c2.5-8.6,5.1-13.7,12.3-10.5C405.7,391.4,409.7,392.5,409.7,392.5z"/>
<polygon class="st2" points="426.1,385.4 425.8,392.5 411.7,392.5 411.8,385.4 "/>
<rect x="374.1" y="404" class="st15" width="93" height="114"/>
<rect x="480.1" y="364" class="st16" width="93" height="154"/>
<rect x="586.1" y="324" class="st17" width="93" height="194"/>
<linearGradient id="SVGID_2_" gradientUnits="userSpaceOnUse" x1="526.598" y1="457.2933" x2="950.9313" y2="457.2933">
	<stop  offset="0" style="stop-color:#FFFFFF"/>
	<stop  offset="1" style="stop-color:#00C878"/>
</linearGradient>
<path class="st18" d="M628.9,518.6c0,0,0.7-12.7-36-34c-36.7-21.3-66.3-34-66.3-34s59.7-4,87.7,12.7c28,16.7,43.3,42,43.3,42
	s-22.7-24.2-2.7-55.1s75.3-54.2,75.3-54.2s-32,14.7-37.3,48c-5.3,33.3-1.3,49.3-1.3,49.3s20-34,74.7-51.3
	c54.7-17.3,100.7-11.3,133.3,11.3c32.7,22.7,51.3,42.7,51.3,42.7s-17.3-16-50-22.7c-32.7-6.7-66.7-8-93.3,10s-35,35.3-35,35.3H628.9
	z"/>
<linearGradient id="SVGID_3_" gradientUnits="userSpaceOnUse" x1="114.6169" y1="456.4592" x2="538.9502" y2="456.4592">
	<stop  offset="0" style="stop-color:#FFFFFF"/>
	<stop  offset="1" style="stop-color:#00C878"/>
</linearGradient>
<path class="st19" d="M217,517.8c0,0,0.7-12.7-36-34s-66.3-34-66.3-34s59.7-4,87.7,12.7c28,16.7,43.3,42,43.3,42
	s-22.7-24.2-2.7-55.1s75.3-54.2,75.3-54.2s-32,14.7-37.3,48s-1.3,49.3-1.3,49.3s20-34,74.7-51.3c54.7-17.3,100.7-11.3,133.3,11.3
	c32.7,22.7,51.3,42.7,51.3,42.7s-17.3-16-50-22.7c-32.7-6.7-66.7-8-93.3,10c-26.7,18-35,35.3-35,35.3H217z"/>
<path class="st20" d="M834.1,18.4c-8-10.7-23.8-18.1-42.1-18.1c-26.3,0-47.5,15.1-47.5,33.7c0,0.1,0,0.1,0,0.2
	c-33.1,1.1-58.7,8.2-58.7,16.7c0,9.3,30.4,16.9,67.8,16.9c1.9,0,3.9,0,5.8-0.1c13.9,9.9,39.8,16.6,69.6,16.6
	c44.3,0,80.3-14.8,80.3-33C909.3,33.8,876.1,19.5,834.1,18.4z"/>
<path class="st20" d="M183,23c0.1-0.5,0.1-1.1,0.1-1.6c0-11.6-17.8-21-39.7-21s-39.7,9.4-39.7,21c0,2.1,0.6,4.1,1.6,6
	C91.3,31.2,82.6,36.8,82.6,43c0,11.9,32.6,21.6,72.7,21.6s72.7-9.7,72.7-21.6C228.1,33.9,209.4,26.2,183,23z"/>
<circle class="st21" cx="690.3" cy="72.2" r="51.2"/>
<path class="st20" d="M672.4,77.7c-0.4,0-0.7,0-1.1,0c-5.2-20.1-28.9-35.3-57.4-35.3c-32.3,0-58.5,19.6-58.5,43.7
	c0,7.2,2.3,13.9,6.4,19.9c-40.4,3-68,9-68,16c0,9.9,56.4,18,126,18c11.4,0,22.4-0.2,32.8-0.6c6.4,0.4,13,0.6,19.7,0.6
	c54.7,0,99-13.9,99-31.2S727.1,77.7,672.4,77.7z"/>
<path class="st20" d="M1021.8,103.4c0,0-0.1,0-0.1,0c0.1-0.5,0.1-1,0.1-1.5c0-9.9-12.8-18-28.5-18c-15.7,0-28.5,8.1-28.5,18
	c0,0.9,0.1,1.7,0.3,2.6c-18.7,2-31.8,6.5-31.8,11.7c0,6.5,20.5,11.9,46.8,12.7c8.8,4.6,24.2,7.6,41.7,7.6c27.3,0,49.5-7.4,49.5-16.5
	S1049.1,103.4,1021.8,103.4z"/>
<path class="st20" d="M412.3,518.2c0.1-0.4,0.2-0.7,0.2-1.1c0-0.5-0.1-0.9-0.3-1.4c1.1-1.7,1.7-3.5,1.7-5.4
	c0-12.1-24.5-22.2-57.9-25.3c0.9-2.2,1.4-4.6,1.4-7c0-14.9-18-27-40.3-27c-6.3,0-12.2,1-17.5,2.7c-11-27.3-55-47.6-107.6-47.6
	c-60.9,0-110.2,27.3-110.2,61c0,10.8,5.1,21,14,29.8c-46.8,4.7-77,12-77,20.2c0,0.4,0.1,0.7,0.2,1.1H412.3z"/>
</svg>
