<?xml version="1.0" encoding="utf-8"?>
<!-- Generator: Adobe Illustrator 22.1.0, SVG Export Plug-In . SVG Version: 6.00 Build 0)  -->
<svg version="1.1" id="Layer_3" xmlns="http://www.w3.org/2000/svg" xmlns:xlink="http://www.w3.org/1999/xlink" x="0px" y="0px"
	 viewBox="0 0 280 280" style="enable-background:new 0 0 280 280;" xml:space="preserve">
<style type="text/css">
	.st0{fill:#E86F2D;}
	.st1{fill:#D2ECFF;}
	.st2{fill:#3F8E68;}
	.st3{fill:#3582EB;}
	.st4{fill:#8FB3C9;}
	.st5{fill:#F9D750;}
	.st6{fill:#194168;}
</style>
<path class="st0" d="M271.5,241.2H7.8c-4.5,0-8.1-3.6-8.1-8.1V73c0-4.5,3.6-8.1,8.1-8.1h263.7c4.5,0,8.1,3.6,8.1,8.1v160.1
	C279.6,237.6,276,241.2,271.5,241.2z"/>
<path class="st0" d="M141.3,258.6h-4.1c-8.9,0-16.1-7.2-16.1-16.1v-4.1c0-8.9,7.2-16.1,16.1-16.1h4.1c8.9,0,16.1,7.2,16.1,16.1v4.1
	C157.5,251.4,150.2,258.6,141.3,258.6z"/>
<path class="st1" d="M123.9,230.8H8.5V38.7h113.7c9.4,0,17.1,7.7,17.1,17.1v190.1C139.3,255.5,139.1,230.8,123.9,230.8z"/>
<polygon class="st2" points="185,280 172.8,268.5 160.5,280 160.5,222.2 185,222.2 "/>
<path class="st3" d="M154.7,230.8H270V38.7H156.3c-9.4,0-17.1,7.7-17.1,17.1v190.1C139.3,255.5,139.4,230.8,154.7,230.8z"/>
<circle class="st2" cx="43.2" cy="82.9" r="16.8"/>
<path class="st4" d="M94.2,77.3H72c-1.3,0-2.3-1-2.3-2.3v-3.5c0-1.3,1-2.3,2.3-2.3h22.3c1.3,0,2.3,1,2.3,2.3v3.5
	C96.6,76.2,95.5,77.3,94.2,77.3z"/>
<path class="st4" d="M109.1,86.6H71.3c-0.9,0-1.7-0.7-1.7-1.7v-0.4c0-0.9,0.7-1.7,1.7-1.7h37.8c0.9,0,1.7,0.7,1.7,1.7v0.4
	C110.8,85.8,110,86.6,109.1,86.6z"/>
<path class="st4" d="M96.9,92.9H71.2c-0.8,0-1.5-0.7-1.5-1.5v-0.4c0-0.8,0.7-1.5,1.5-1.5h25.8c0.8,0,1.5,0.7,1.5,1.5v0.4
	C98.4,92.3,97.8,92.9,96.9,92.9z"/>
<path class="st4" d="M107.9,121.3H32.6c-1.6,0-2.8-1.3-2.8-2.8v-0.7c0-1.6,1.3-2.8,2.8-2.8h75.3c1.6,0,2.8,1.3,2.8,2.8v0.7
	C110.8,120,109.5,121.3,107.9,121.3z"/>
<path class="st4" d="M78.5,130.5H31c-0.7,0-1.2-0.6-1.2-1.2v-0.3c0-0.7,0.6-1.2,1.2-1.2h47.5c0.7,0,1.2,0.6,1.2,1.2v0.3
	C79.8,129.9,79.2,130.5,78.5,130.5z"/>
<path class="st4" d="M78.5,137.6H31c-0.7,0-1.2-0.6-1.2-1.2v-0.3c0-0.7,0.6-1.2,1.2-1.2h47.5c0.7,0,1.2,0.6,1.2,1.2v0.3
	C79.8,137.1,79.2,137.6,78.5,137.6z"/>
<path class="st4" d="M78.5,145.6H31c-0.7,0-1.2-0.6-1.2-1.2V144c0-0.7,0.6-1.2,1.2-1.2h47.5c0.7,0,1.2,0.6,1.2,1.2v0.3
	C79.8,145,79.2,145.6,78.5,145.6z"/>
<path class="st5" d="M244.7,20.8c0-10.8-8.3-19.7-18.9-20.7c-0.6-0.1-1.3-0.1-2-0.1s-1.3,0-2,0.1C211.3,1.1,203,10,203,20.8
	c0,5.1,1.8,9.7,4.8,13.3v45.2l16-13.8l16,13.8V34.2C242.9,30.6,244.7,25.9,244.7,20.8z"/>
<polygon class="st6" points="231.3,36 222.8,30.6 213.5,34.5 216,24.7 209.4,17.1 219.4,16.5 224.6,7.8 228.3,17.2 238.2,19.5 
	230.4,25.9 "/>
</svg>
