<?xml version="1.0" encoding="utf-8"?>
<!-- Generator: Adobe Illustrator 22.1.0, SVG Export Plug-In . SVG Version: 6.00 Build 0)  -->
<svg version="1.1" xmlns="http://www.w3.org/2000/svg" xmlns:xlink="http://www.w3.org/1999/xlink" x="0px" y="0px"
	 viewBox="0 0 280 280" style="enable-background:new 0 0 280 280;" xml:space="preserve">
<style type="text/css">
	.st0{display:none;}
	.st1{display:inline;fill:#D2ECFF;}
	.st2{display:inline;fill:#F9D750;}
	.st3{display:inline;fill:#5BA1F4;}
	.st4{display:inline;fill:#3582EB;}
	.st5{display:inline;fill:#194168;}
	.st6{fill:#5BA1F4;}
	.st7{fill:#3582EB;}
	.st8{fill:#F78A52;}
	.st9{fill:#E86F2D;}
	.st10{fill:#44698E;}
	.st11{fill:#194168;}
</style>
<g id="Layer_1" class="st0">
	<polygon class="st1" points="214.2,89.2 77.6,210.7 13.1,121.5 147.1,9.2 	"/>
	
		<rect x="37.6" y="61.6" transform="matrix(0.8657 -0.5006 0.5006 0.8657 -38.0809 85.7835)" class="st2" width="206.5" height="104.4"/>
	<path class="st3" d="M244,270H12.3c-6.6,0-12-5.4-12-12V94.3c0-6.6,5.4-12,12-12H244c6.6,0,12,5.4,12,12V258
		C256,264.6,250.6,270,244,270z"/>
	<path class="st4" d="M255.8,102.1c-2.1-11.2-11.9-19.8-23.7-19.8H24.6c-13.3,0-24.1,10.8-24.1,24.1V246c0,12.7,9.9,23.1,22.4,24
		C38.3,176.7,136.3,104.4,255.8,102.1z"/>
	<path class="st1" d="M268.3,207.4H149.1c-6.6,0-12-5.4-12-12v-38.5c0-6.6,5.4-12,12-12h119.2c6.6,0,12,5.4,12,12v38.5
		C280.3,202,274.9,207.4,268.3,207.4z"/>
	<circle class="st5" cx="173.9" cy="173" r="11.4"/>
</g>
<g id="Layer_2">
	<path class="st6" d="M20.7,72.3l10-5.7c-1-5.4-1-11,0-16.4l-10-5.7c-1.1-0.7-1.7-2-1.3-3.3c2.6-8.3,7-15.8,12.8-22.1
		c0.9-1,2.3-1.2,3.5-0.5l9.9,5.7c4.2-3.6,9-6.4,14.2-8.2V4.6c0-1.3,0.9-2.4,2.2-2.7c4.2-1,8.5-1.4,12.8-1.4v39.2
		c-10.3,0-18.7,8.4-18.7,18.7S64.4,77,74.7,77v39.2c-4.3,0-8.6-0.5-12.8-1.4c-1.3-0.3-2.2-1.4-2.2-2.7v-11.5
		c-5.2-1.8-10-4.6-14.2-8.2l-9.9,5.7c-1.1,0.7-2.6,0.4-3.5-0.5C26.4,91.4,22,83.9,19.4,75.6C19,74.3,19.6,73,20.7,72.3z"/>
	<path class="st7" d="M128.8,72.3l-10-5.7c1-5.4,1-11,0-16.4l10-5.7c1.1-0.7,1.7-2,1.3-3.3c-2.6-8.3-7-15.8-12.8-22.1
		c-0.9-1-2.3-1.2-3.5-0.5l-9.9,5.7c-4.2-3.6-9-6.4-14.2-8.2V4.6c0-1.3-0.9-2.4-2.2-2.7c-4.2-1-8.5-1.4-12.8-1.4v39.2
		c10.3,0,18.7,8.4,18.7,18.7S85,77,74.7,77v39.2c4.3,0,8.6-0.5,12.8-1.4c1.3-0.3,2.2-1.4,2.2-2.7v-11.5c5.2-1.8,10-4.6,14.2-8.2
		l9.9,5.7c1.1,0.7,2.6,0.4,3.5-0.5c5.8-6.2,10.2-13.8,12.8-22.1C130.5,74.3,129.9,73,128.8,72.3z"/>
	<path class="st8" d="M105.2,177.1l14-8.1c-1.4-7.6-1.4-15.5,0-23.1l-14-8.1c-1.6-0.9-2.3-2.8-1.8-4.6c3.6-11.7,9.9-22.3,18-31.1
		c1.3-1.4,3.3-1.7,4.9-0.7l14,8.1c5.9-5.1,12.7-9,20-11.6V81.7c0-1.9,1.3-3.5,3.1-3.9c6-1.3,12-2,18-2v55.3
		c-14.5,0-26.3,11.8-26.3,26.3s11.8,26.3,26.3,26.3v55.3c-6.1,0-12.2-0.7-18-2c-1.8-0.4-3.1-2-3.1-3.9v-16.2
		c-7.3-2.6-14.1-6.5-20-11.6l-14,8.1c-1.6,0.9-3.6,0.6-4.9-0.7c-8.1-8.8-14.4-19.4-18-31.1C102.8,180,103.6,178.1,105.2,177.1z"/>
	<path class="st9" d="M257.5,177.1l-14-8.1c1.4-7.6,1.4-15.5,0-23.1l14-8.1c1.6-0.9,2.3-2.8,1.8-4.6c-3.6-11.7-9.9-22.3-18-31.1
		c-1.3-1.4-3.3-1.7-4.9-0.7l-14,8.1c-5.9-5.1-12.7-9-20-11.6V81.7c0-1.9-1.3-3.5-3.1-3.9c-6-1.3-12-2-18-2v55.3
		c14.5,0,26.3,11.8,26.3,26.3s-11.8,26.3-26.3,26.3v55.3c6.1,0,12.2-0.7,18-2c1.8-0.4,3.1-2,3.1-3.9v-16.2c7.3-2.6,14.1-6.5,20-11.6
		l14,8.1c1.6,0.9,3.6,0.6,4.9-0.7c8.1-8.8,14.4-19.4,18-31.1C259.9,180,259.1,178.1,257.5,177.1z"/>
	<path class="st10" d="M32.1,249.1l7.1-4.1c-0.7-3.9-0.7-7.8,0-11.7l-7.1-4.1c-0.8-0.5-1.2-1.4-0.9-2.3c1.8-5.9,5-11.3,9.1-15.8
		c0.6-0.7,1.7-0.8,2.5-0.4l7.1,4.1c3-2.6,6.4-4.5,10.1-5.9v-8.2c0-0.9,0.7-1.7,1.6-2c3-0.7,6.1-1,9.1-1v28c-7.3,0-13.3,6-13.3,13.3
		s6,13.3,13.3,13.3v28c-3.1,0-6.2-0.3-9.1-1c-0.9-0.2-1.6-1-1.6-2v-8.2c-3.7-1.3-7.1-3.3-10.1-5.9l-7.1,4.1
		c-0.8,0.5-1.8,0.3-2.5-0.4c-4.1-4.5-7.3-9.8-9.1-15.8C30.9,250.5,31.3,249.5,32.1,249.1z"/>
	<path class="st11" d="M109.2,249.1l-7.1-4.1c0.7-3.9,0.7-7.8,0-11.7l7.1-4.1c0.8-0.5,1.2-1.4,0.9-2.3c-1.8-5.9-5-11.3-9.1-15.8
		c-0.6-0.7-1.7-0.8-2.5-0.4l-7.1,4.1c-3-2.6-6.4-4.5-10.1-5.9v-8.2c0-0.9-0.7-1.7-1.6-2c-3-0.7-6.1-1-9.1-1v28
		c7.3,0,13.3,6,13.3,13.3s-6,13.3-13.3,13.3v28c3.1,0,6.2-0.3,9.1-1c0.9-0.2,1.6-1,1.6-2v-8.2c3.7-1.3,7.1-3.3,10.1-5.9l7.1,4.1
		c0.8,0.5,1.8,0.3,2.5-0.4c4.1-4.5,7.3-9.8,9.1-15.8C110.3,250.5,110,249.5,109.2,249.1z"/>
</g>
</svg>
