<?xml version="1.0" encoding="utf-8"?>
<!-- Generator: Adobe Illustrator 22.1.0, SVG Export Plug-In . SVG Version: 6.00 Build 0)  -->
<svg version="1.1" id="Layer_2_1_" xmlns="http://www.w3.org/2000/svg" xmlns:xlink="http://www.w3.org/1999/xlink" x="0px" y="0px"
	 viewBox="0 0 280 280" style="enable-background:new 0 0 280 280;" xml:space="preserve">
<style type="text/css">
	.st0{fill:#194168;}
	.st1{fill:#D2ECFF;}
	.st2{fill:#CBE5F4;}
	.st3{fill:#F9D750;}
	.st4{fill:#E86F2D;}
	.st5{fill:#5BA1F4;}
	.st6{fill:#3F8E68;}
	.st7{fill:#FFFFFF;}
</style>
<path class="st0" d="M262.1,231.5H17.9c-9.9,0-17.9-8-17.9-17.9h280C280,223.5,272,231.5,262.1,231.5z"/>
<path class="st1" d="M162.1,219.6h-44.3c-1.6,0-2.9-1.3-2.9-2.9v-3.1h50v3.1C165,218.3,163.7,219.6,162.1,219.6z"/>
<path class="st0" d="M5,209.7h270V63.8c0-5.2-4.2-9.4-9.4-9.4H14.4c-5.2,0-9.4,4.2-9.4,9.4V209.7z"/>
<rect x="15" y="64.3" class="st1" width="250" height="135.3"/>
<polygon class="st2" points="264.3,63.3 14.7,63.3 14.7,198.6 14.8,198.6 "/>
<circle class="st3" cx="140.3" cy="59.1" r="2.8"/>
<rect x="45.3" y="80.8" class="st3" width="190" height="15"/>
<rect x="45.3" y="105.3" class="st4" width="190" height="51.4"/>
<rect x="45.3" y="167.6" class="st5" width="49" height="28"/>
<rect x="186.3" y="168.6" class="st5" width="49" height="28"/>
<rect x="116" y="168.1" class="st5" width="49" height="28"/>
<circle class="st6" cx="257.1" cy="49.6" r="21.8"/>
<path class="st7" d="M253.1,58.6l-8.1-8.1c-0.5-0.5-0.5-1.3,0-1.8l1.8-1.8c0.5-0.5,1.3-0.5,1.8,0l5.5,5.5l11.7-11.7
	c0.5-0.5,1.3-0.5,1.8,0l1.8,1.8c0.5,0.5,0.5,1.3,0,1.8l-14.4,14.4C254.4,59.1,253.6,59.1,253.1,58.6L253.1,58.6z"/>
<path class="st0" d="M231.4,252.3h42.5c3.4,0,6.1-2.7,6.1-6.1V157c0-3.4-2.7-6.1-6.1-6.1h-42.5c-3.4,0-6.1,2.7-6.1,6.1v89.2
	C225.3,249.6,228.1,252.3,231.4,252.3z"/>
<rect x="227.3" y="160.8" class="st1" width="50.7" height="76.9"/>
<circle class="st1" cx="251.8" cy="245.3" r="4.2"/>
<path class="st1" d="M256.8,157.6h-10c-0.6,0-1.2-0.5-1.2-1.2v0c0-0.6,0.5-1.2,1.2-1.2h10c0.6,0,1.2,0.5,1.2,1.2v0
	C258,157.1,257.5,157.6,256.8,157.6z"/>
<rect x="231.9" y="165.4" class="st3" width="41.5" height="5.5"/>
<rect x="231.9" y="174.2" class="st4" width="41.5" height="16.2"/>
<rect x="231.9" y="196.2" class="st5" width="41.5" height="5.4"/>
<rect x="231.9" y="204.7" class="st5" width="41.5" height="1.5"/>
<rect x="231.9" y="208.2" class="st5" width="41.5" height="1.5"/>
<rect x="231.9" y="211.7" class="st5" width="41.5" height="1.5"/>
<rect x="231.9" y="218.3" class="st5" width="41.5" height="5.4"/>
<rect x="231.9" y="226.8" class="st5" width="41.5" height="1.5"/>
<rect x="231.9" y="230.3" class="st5" width="41.5" height="1.5"/>
<rect x="231.9" y="233.8" class="st5" width="41.5" height="1.5"/>
</svg>
