<?xml version="1.0" encoding="utf-8"?>
<!-- Generator: Adobe Illustrator 22.1.0, SVG Export Plug-In . SVG Version: 6.00 Build 0)  -->
<svg version="1.1" id="Layer_3" xmlns="http://www.w3.org/2000/svg" xmlns:xlink="http://www.w3.org/1999/xlink" x="0px" y="0px"
	 viewBox="0 0 280 280" style="enable-background:new 0 0 280 280;" xml:space="preserve">
<style type="text/css">
	.st0{fill:#D9E5E8;}
	.st1{fill:#D2ECFF;}
	.st2{fill:#3582EB;}
	.st3{fill:#E86F2D;}
	.st4{fill:#3F8E68;}
	.st5{fill:#FFFFFF;}
	.st6{fill:#5BA1F4;}
</style>
<path class="st0" d="M274.7,265.9H5.2c-2.9,0-5.2-2.3-5.2-5.2V200c0-2.9,2.3-5.2,5.2-5.2h269.5c2.9,0,5.2,2.3,5.2,5.2v60.6
	C280,263.5,277.6,265.9,274.7,265.9z"/>
<path class="st1" d="M274.7,257.3H5.2c-2.9,0-5.2-2.3-5.2-5.2v-60.6c0-2.9,2.3-5.2,5.2-5.2h269.5c2.9,0,5.2,2.3,5.2,5.2V252
	C280,254.9,277.6,257.3,274.7,257.3z"/>
<circle class="st2" cx="246.6" cy="221" r="9.4"/>
<circle class="st3" cx="220.1" cy="221" r="7.2"/>
<circle class="st4" cx="196.4" cy="221" r="5"/>
<rect x="23.7" y="201.6" class="st5" width="5.7" height="39.5"/>
<rect x="39.5" y="202" class="st5" width="5.7" height="39.5"/>
<rect x="55.6" y="202" class="st5" width="5.7" height="39.5"/>
<polygon class="st2" points="176.6,109 176.6,12.8 140,12.8 140,109 140,127.7 140,209.5 241.4,109 "/>
<polygon class="st6" points="103.3,12.8 103.3,109 38.6,109 140,209.5 140,127.7 140,109 140,12.8 "/>
</svg>
