<?xml version="1.0" encoding="utf-8"?>
<!-- Generator: Adobe Illustrator 22.1.0, SVG Export Plug-In . SVG Version: 6.00 Build 0)  -->
<svg version="1.1" xmlns="http://www.w3.org/2000/svg" xmlns:xlink="http://www.w3.org/1999/xlink" x="0px" y="0px"
	 viewBox="0 0 280 280" style="enable-background:new 0 0 280 280;" xml:space="preserve">
<style type="text/css">
	.st0{fill:#D2ECFF;}
	.st1{fill:#3582EB;}
	.st2{fill:#194168;}
	.st3{fill:#5BA1F4;}
	.st4{fill:#F78A52;}
	.st5{fill:#E86F2D;}
</style>
<g id="Layer_2_1_">
</g>
<g id="Layer_4">
	<path class="st0" d="M270.7,211.8L270.7,211.8l-42-46c-4.3-4.8-6.7-7-6.7-13.4V50.2h-35v102.1c0,6.4-2.4,8.6-6.7,13.4l-42,46l0,0
		c-4.5,4.9-7.3,11.4-7.3,18.5v0c0,15,12.2,16.2,27.2,16.2H203h3h44.8c15,0,27.2-1.2,27.2-16.2v0C278,223.1,275.2,216.6,270.7,211.8z
		"/>
	<path class="st1" d="M270.7,213.8l-42-46c-1.5-1.7-2.8-3-3.8-4.3c-7.1-0.6-13.9,1.9-19.9,9.7c-22.7,29.4-47.6,41.2-66.1,39.9
		l-0.7,0.7l0,0c-4.5,4.9-7.3,11.4-7.3,18.5v0c0,15,12.2,16.2,27.2,16.2H203h3h44.8c15,0,27.2-1.2,27.2-16.2v0
		C278,225.1,275.2,218.6,270.7,213.8L270.7,213.8z"/>
	<path class="st2" d="M250.8,248.5h-92.5c-12.3,0-29.2,0-29.2-18.2c0-5.9,1.8-11.7,5.1-16.5h-0.4l45.8-50.2
		c3.7-4.1,5.4-5.9,5.4-11.2V48.2h39v104.1c0,5.3,1.7,7.1,5.4,11.2l0.8,0.8l45,49.4h-0.4c3.3,4.8,5.1,10.6,5.1,16.5
		C280,248.5,263.1,248.5,250.8,248.5z M142.8,209.8L142.8,209.8l-3.1,3.4c-4.3,4.7-6.7,10.8-6.7,17.2c0,12.1,8.1,14.2,25.2,14.2
		h92.5c17.1,0,25.2-2.1,25.2-14.2c0-6.4-2.4-12.5-6.7-17.2l-3.1-3.4h0.1l-39.7-43.5c-3.9-4.3-6.5-7.1-6.5-13.9V52.2h-31v100.1
		c0,6.8-2.6,9.6-6.5,13.9l-0.8,0.8L142.8,209.8z"/>
	<path class="st2" d="M221.7,55.5h-34.6c-2.7,0-5-2.2-5-5v0c0-2.7,2.2-5,5-5h34.6c2.7,0,5,2.2,5,5v0
		C226.6,53.2,224.4,55.5,221.7,55.5z"/>
	<circle class="st3" cx="240.8" cy="222.2" r="6.7"/>
	<circle class="st3" cx="214.1" cy="208.9" r="6.6"/>
	<circle class="st3" cx="233.2" cy="195.3" r="4"/>
	<circle class="st1" cx="226.1" cy="27.1" r="8.1"/>
	<circle class="st1" cx="201.6" cy="35.1" r="5.8"/>
	<circle class="st1" cx="206.2" cy="4.6" r="4.6"/>
</g>
<g id="Layer_3">
	<path class="st0" d="M131.4,36.8c0.4-5.1,3.4-9.7,8-11.8c6.1-2.8,9.7-9.2,9.7-16.8v0c0,0,0,0,0-0.1c0-3.4-2.9-6-6.2-6H55
		c-3.4,0-6.2,2.7-6.2,6c0,0,0,0,0,0.1c0,7.5,3.7,14,9.7,16.8c4.6,2.1,7.7,6.8,8,11.8C72,110.2,1.7,96.4,2.1,181.7
		c0.2,49,36.9,93.8,95.9,96.1l0,0c0.2,0,0.3,0,0.5,0c0.2,0,0.3,0,0.5,0l0,0c59-2.3,96.7-47.1,96.9-96.1
		C196.3,96.4,126,110.2,131.4,36.8z"/>
	<path class="st4" d="M139.2,186.9c-28.2-1.8-40.2-8.5-66-39.4c-17.6-21.2-22-32.9-54.3-23.7l0,0C9.2,137,1.9,154.2,2.1,181.7
		c0.2,49,36.9,93.8,95.9,96.1l0,0c0.2,0,0.3,0,0.5,0c0.2,0,0.3,0,0.5,0l0,0c59-2.3,96.7-47.1,96.9-96.1c0-6.5-0.4-12.4-1.1-17.9
		C181.3,179.8,168.8,188.8,139.2,186.9z"/>
	<path class="st5" d="M85.2,250c-27.5,0-53-9-74.1-24.4c15,28.8,44.8,50,84.9,51.6l0,0c0.2,0,0.3,0,0.5,0c0.2,0,0.3,0,0.5,0l0,0
		c55.8-2.2,92.5-42.4,96.5-88.2C170.1,225.8,130.3,250,85.2,250z"/>
	<path class="st2" d="M95.9,280v-0.2c-27.7-1.5-51.7-12.3-69.4-31.1c-16.9-18-26.3-41.8-26.4-67c-0.2-44.4,18.9-63,35.8-79.4
		c16.1-15.6,31.3-30.4,28.7-65.3c-0.3-4.5-2.9-8.4-6.8-10.1c-6.8-3.1-11-10.2-11-18.7C46.8,3.6,50.5,0,55,0h87.9
		c4.6,0,8.3,3.6,8.3,8.1c0,8.5-4.2,15.7-11,18.7c-3.9,1.8-6.5,5.6-6.8,10.1l-2.1-0.2l2.1,0.2c-2.6,35,12.6,49.7,28.7,65.3
		c16.9,16.4,36,35,35.8,79.4c-0.1,25.1-9.7,48.9-27,67c-17.7,18.6-42.5,29.6-70,31.1l0,0.2l-2.5,0L95.9,280z M55,4.1
		c-2.3,0-4.2,1.8-4.2,4c0,6.9,3.3,12.6,8.5,15c5.3,2.4,8.8,7.6,9.2,13.6c2.7,36.9-13.1,52.3-29.9,68.6C21.6,121.9,3.9,139,4.1,181.7
		c0.1,24.1,9.1,46.9,25.3,64.2c17.4,18.5,41.1,28.8,68.6,29.9l0.5,0l0.3,0c27.2-1.1,51.7-11.7,69.1-29.9
		c16.5-17.3,25.7-40.1,25.8-64.1c0.2-42.7-17.5-59.8-34.6-76.5c-16.8-16.3-32.6-31.7-29.9-68.6c0.4-6,4-11.2,9.2-13.6
		c5.3-2.4,8.5-8.1,8.5-14.9c0-2.3-1.9-4-4.2-4H55z"/>
	<path class="st2" d="M57.1,24.2h83.8c5.2-3.1,8.3-9.1,8.3-16v0c0,0,0,0,0-0.1c0-3.4-2.9-6-6.2-6H55c-3.4,0-6.2,2.7-6.2,6
		c0,0,0,0,0,0.1C48.8,15.1,51.9,21.1,57.1,24.2z"/>
	<circle class="st4" cx="89.7" cy="104.4" r="12.7"/>
	<circle class="st4" cx="125.6" cy="140.3" r="9.5"/>
	<circle class="st4" cx="112.4" cy="58.3" r="6.5"/>
</g>
</svg>
