<?xml version="1.0" encoding="utf-8"?>
<!-- Generator: Adobe Illustrator 22.1.0, SVG Export Plug-In . SVG Version: 6.00 Build 0)  -->
<svg version="1.1" xmlns="http://www.w3.org/2000/svg" xmlns:xlink="http://www.w3.org/1999/xlink" x="0px" y="0px"
	 viewBox="0 0 280 280" style="enable-background:new 0 0 280 280;" xml:space="preserve">
<style type="text/css">
	.st0{fill:#5BA1F4;}
	.st1{fill:#D2ECFF;}
	.st2{fill:#3582EB;}
	.st3{fill:#E86F2D;}
	.st4{fill:#F9D750;}
	.st5{fill:#3F8E68;}
	.st6{fill:#4F98E0;}
	.st7{fill:#C1D9E5;}
	.st8{fill:#194168;}
</style>
<g id="Layer_2_1_">
	<rect x="20" y="104.5" class="st0" width="79.5" height="138"/>
	<rect x="99.5" y="104.5" class="st1" width="150.5" height="138"/>
	<polygon class="st2" points="99.5,104.5 85.5,139 0,139 20,104.5 	"/>
	<polygon class="st2" points="99.5,104.5 115,139 280,139 250,104.5 	"/>
	<circle class="st3" cx="230.2" cy="224.8" r="6.8"/>
	<circle class="st4" cx="212.2" cy="225.2" r="5.2"/>
	<circle class="st5" cx="197.2" cy="225.9" r="3.7"/>
	<path class="st6" d="M19.5,242.5h80V256h-80c-1.9,0-3.5-1.6-3.5-3.5V246C16,244.1,17.6,242.5,19.5,242.5z"/>
	<path class="st7" d="M99.5,242.5h150.6c1.6,0,2.9,1.3,2.9,2.9v7.8c0,1.6-1.3,2.9-2.9,2.9H99.5V242.5z"/>
	<polygon class="st3" points="140,104.5 223.5,48 250,104.5 	"/>
	<polygon class="st4" points="20,58 20,104.5 116.3,104.5 	"/>
	<polygon class="st5" points="140,104.5 65,37.3 59.8,76.2 116.3,104.5 	"/>
	<polygon class="st8" points="116.3,83.3 157.7,19.3 189.8,70.8 140,104.5 	"/>
</g>
<g id="Layer_3">
</g>
</svg>
