<?xml version="1.0" encoding="utf-8"?>
<!-- Generator: Adobe Illustrator 22.1.0, SVG Export Plug-In . SVG Version: 6.00 Build 0)  -->
<svg version="1.1" id="Layer_3" xmlns="http://www.w3.org/2000/svg" xmlns:xlink="http://www.w3.org/1999/xlink" x="0px" y="0px"
	 viewBox="0 0 280 280" style="enable-background:new 0 0 280 280;" xml:space="preserve">
<style type="text/css">
	.st0{fill:#D9E5E8;}
	.st1{fill:#D2ECFF;}
	.st2{fill:#5BA1F4;}
	.st3{fill:#3582EB;}
	.st4{fill:#E86F2D;}
	.st5{fill:#3F8E68;}
	.st6{fill:#FFFFFF;}
</style>
<path class="st0" d="M268,269H12c-6.6,0-12-5.4-12-12v-43c0-6.6,5.4-12,12-12h256c6.6,0,12,5.4,12,12v43
	C280,263.6,274.6,269,268,269z"/>
<path class="st1" d="M268,260H12c-6.6,0-12-5.4-12-12v-43c0-6.6,5.4-12,12-12h256c6.6,0,12,5.4,12,12v43
	C280,254.6,274.6,260,268,260z"/>
<path class="st2" d="M269.1,177.5H10.9c-5.4,0-9.3-5.2-7.8-10.4L45.8,23.2C48.3,14.8,56,9,64.8,9h150.5c8.8,0,16.5,5.8,19,14.2
	L277,167.1C278.4,172.3,274.5,177.5,269.1,177.5z"/>
<ellipse transform="matrix(0.1602 -0.9871 0.9871 0.1602 -14.8834 440.1067)" class="st3" cx="251.2" cy="228.8" rx="9.1" ry="9.1"/>
<circle class="st4" cx="223.8" cy="230.2" r="7.7"/>
<circle class="st5" cx="199" cy="230.2" r="6.5"/>
<path class="st6" d="M19.5,244L19.5,244c-2.2,0-4-1.8-4-4v-26c0-2.2,1.8-4,4-4l0,0c2.2,0,4,1.8,4,4v26C23.5,242.2,21.7,244,19.5,244
	z"/>
<path class="st6" d="M34.5,244L34.5,244c-2.2,0-4-1.8-4-4v-26c0-2.2,1.8-4,4-4l0,0c2.2,0,4,1.8,4,4v26C38.5,242.2,36.7,244,34.5,244
	z"/>
<path class="st6" d="M50.5,244L50.5,244c-2.2,0-4-1.8-4-4v-26c0-2.2,1.8-4,4-4l0,0c2.2,0,4,1.8,4,4v26C54.5,242.2,52.7,244,50.5,244
	z"/>
<path class="st3" d="M199,29.8c13.1,0,25.9,1.3,38.2,3.6l-3-10.2C231.7,14.8,224,9,215.2,9H64.8c-8.8,0-16.5,5.8-19,14.2L3.1,167.1
	l0,0C28.3,94.4,117.3,29.8,199,29.8z"/>
<circle class="st6" cx="221.4" cy="137.9" r="15.9"/>
</svg>
