<?xml version="1.0" encoding="utf-8"?>
<!-- Generator: Adobe Illustrator 22.1.0, SVG Export Plug-In . SVG Version: 6.00 Build 0)  -->
<svg version="1.1" id="Layer_3" xmlns="http://www.w3.org/2000/svg" xmlns:xlink="http://www.w3.org/1999/xlink" x="0px" y="0px"
	 viewBox="0 0 280 280" style="enable-background:new 0 0 280 280;" xml:space="preserve">
<style type="text/css">
	.st0{fill:#5BA1F4;}
	.st1{fill:#3582EB;}
	.st2{fill:#F9E298;}
	.st3{fill:#F9D750;}
	.st4{fill:#F78A52;}
	.st5{fill:#E86F2D;}
</style>
<path class="st0" d="M140,0C62.7,0,0,62.7,0,140s62.7,140,140,140s140-62.7,140-140S217.3,0,140,0z M140,220c-44.2,0-80-35.8-80-80
	s35.8-80,80-80s80,35.8,80,80S184.2,220,140,220z"/>
<path class="st1" d="M140,0C62.7,0,0,62.7,0,140s62.7,140,140,140s140-62.7,140-140S217.3,0,140,0z M140,250
	c-60.8,0-110-49.2-110-110S79.2,30,140,30s110,49.2,110,110S200.8,250,140,250z"/>
<path class="st2" d="M185.7,7.6C171.4,2.7,156,0,140,0c0,0,0,0,0,0s0,0,0,0c-16,0-31.4,2.7-45.7,7.6l20.6,56.4
	c7.8-2.6,16.1-4,24.7-4v0c0.2,0,0.3,0,0.5,0c0.2,0,0.3,0,0.5,0v0c8.6,0.1,16.9,1.5,24.7,4L185.7,7.6z"/>
<path class="st3" d="M140,30c12.4,0,24.3,2.1,35.5,5.8l10.3-28.2C171.4,2.7,156,0,140,0c0,0,0,0,0,0s0,0,0,0
	c-16,0-31.4,2.7-45.7,7.6l10.3,28.2C115.7,32.1,127.6,30,140,30z"/>
<path class="st4" d="M273.3,97.2c4.6,14.4,7,29.9,6.7,45.9c0,0,0,0,0,0s0,0,0,0c-0.3,16-3.4,31.3-8.6,45.5l-56-21.8
	c2.7-7.7,4.3-16,4.6-24.6l0,0c0-0.2,0-0.3,0-0.5c0-0.2,0-0.3,0-0.5l0,0c0.1-8.6-1.1-16.9-3.5-24.8L273.3,97.2z"/>
<path class="st5" d="M273.3,97.2l-28.4,9.7c3.3,10.5,5.1,21.6,5.1,33.1c0,13.3-2.3,26-6.6,37.7l28,10.9c5.3-14.2,8.3-29.5,8.6-45.5
	c0,0,0,0,0,0c0,0,0,0,0,0C280.3,127.1,278,111.6,273.3,97.2z"/>
<path class="st2" d="M185.7,272.4c-14.3,4.9-29.7,7.6-45.7,7.6c0,0,0,0,0,0s0,0,0,0c-16,0-31.4-2.7-45.7-7.6l20.6-56.4
	c7.8,2.6,16.1,4,24.7,4v0c0.2,0,0.3,0,0.5,0c0.2,0,0.3,0,0.5,0v0c8.6-0.1,16.9-1.5,24.7-4L185.7,272.4z"/>
<path class="st3" d="M140,250c-12.4,0-24.3-2.1-35.5-5.8l-10.3,28.2c14.3,4.9,29.7,7.6,45.7,7.6c0,0,0,0,0,0s0,0,0,0
	c16,0,31.4-2.7,45.7-7.6l-10.3-28.2C164.3,247.9,152.4,250,140,250z"/>
<path class="st4" d="M6.7,97.2c-4.6,14.4-7,29.9-6.7,45.9c0,0,0,0,0,0c0,0,0,0,0,0c0.3,16,3.4,31.3,8.6,45.5l56-21.8
	c-2.7-7.7-4.3-16-4.6-24.6l0,0c0-0.2,0-0.3,0-0.5c0-0.2,0-0.3,0-0.5l0,0c-0.1-8.6,1.1-16.9,3.5-24.8L6.7,97.2z"/>
<path class="st5" d="M30,140c0-11.5,1.8-22.7,5.1-33.1L6.7,97.2c-4.6,14.4-7,29.9-6.7,45.9c0,0,0,0,0,0s0,0,0,0
	c0.3,16,3.4,31.3,8.6,45.5l28-10.9C32.3,166,30,153.3,30,140z"/>
<circle class="st5" cx="140" cy="140" r="49"/>
</svg>
