<?xml version="1.0" encoding="utf-8"?>
<!-- Generator: Adobe Illustrator 22.1.0, SVG Export Plug-In . SVG Version: 6.00 Build 0)  -->
<svg version="1.1" id="Layer_1" xmlns="http://www.w3.org/2000/svg" xmlns:xlink="http://www.w3.org/1999/xlink" x="0px" y="0px"
	 viewBox="0 0 280 280" style="enable-background:new 0 0 280 280;" xml:space="preserve">
<style type="text/css">
	.st0{fill:#D2ECFF;}
	.st1{fill:#F9D750;}
	.st2{fill:#5BA1F4;}
	.st3{fill:#3582EB;}
	.st4{fill:#194168;}
</style>
<polygon class="st0" points="214.2,89.2 77.6,210.7 13.1,121.5 147.1,9.2 "/>
<rect x="37.6" y="61.6" transform="matrix(0.8657 -0.5006 0.5006 0.8657 -38.0809 85.7835)" class="st1" width="206.5" height="104.4"/>
<path class="st2" d="M244,270H12.3c-6.6,0-12-5.4-12-12V94.3c0-6.6,5.4-12,12-12H244c6.6,0,12,5.4,12,12V258
	C256,264.6,250.6,270,244,270z"/>
<path class="st3" d="M255.8,102.1c-2.1-11.2-11.9-19.8-23.7-19.8H24.6c-13.3,0-24.1,10.8-24.1,24.1V246c0,12.7,9.9,23.1,22.4,24
	C38.3,176.7,136.3,104.4,255.8,102.1z"/>
<path class="st0" d="M268.3,207.4H149.1c-6.6,0-12-5.4-12-12v-38.5c0-6.6,5.4-12,12-12h119.2c6.6,0,12,5.4,12,12v38.5
	C280.3,202,274.9,207.4,268.3,207.4z"/>
<circle class="st4" cx="173.9" cy="173" r="11.4"/>
</svg>
